HIERARCHY
ROOT Hips
{
 OFFSET 0.000000 0.000000 0.000000
 CHANNELS 6 Xposition Yposition Zposition Yrotation Xrotation Zrotation
 JOINT Chest
 {
  OFFSET 0.000000 10.932484 0.001155
  CHANNELS 3 Yrotation Xrotation Zrotation
  JOINT Chest2
  {
   OFFSET 0.000000 12.093805 -0.002099
   CHANNELS 3 Yrotation Xrotation Zrotation
   JOINT Chest3
   {
    OFFSET 0.000000 10.927800 0.000000
    CHANNELS 3 Yrotation Xrotation Zrotation
    JOINT Chest4
    {
     OFFSET 0.000000 10.927800 0.000000
     CHANNELS 3 Yrotation Xrotation Zrotation
     JOINT Neck
     {
      OFFSET 0.000000 15.355144 0.000000
      CHANNELS 3 Yrotation Xrotation Zrotation
      JOINT Head
      {
       OFFSET 0.000000 10.170446 -0.004991
       CHANNELS 3 Yrotation Xrotation Zrotation
       End Site
       {
        OFFSET 0.000000 19.463738 -0.002607
       }
      }
     }
     JOINT RightCollar
     {
      OFFSET -3.333126 8.566406 0.000000
      CHANNELS 3 Yrotation Xrotation Zrotation
      JOINT RightShoulder
      {
       OFFSET -15.529370 0.000000 0.000000
       CHANNELS 3 Yrotation Xrotation Zrotation
       JOINT RightElbow
       {
        OFFSET 0.000000 -33.145213 0.000000
        CHANNELS 3 Yrotation Xrotation Zrotation
        JOINT RightWrist
        {
         OFFSET 0.000000 -27.120720 -0.000000
         CHANNELS 3 Yrotation Xrotation Zrotation
         End Site
         {
          OFFSET 0.000000 -20.306483 0.000000
         }
        }
       }
      }
     }
     JOINT LeftCollar
     {
      OFFSET 3.333126 8.566406 0.000000
      CHANNELS 3 Yrotation Xrotation Zrotation
      JOINT LeftShoulder
      {
       OFFSET 15.529370 0.000000 0.000000
       CHANNELS 3 Yrotation Xrotation Zrotation
       JOINT LeftElbow
       {
        OFFSET 0.000000 -33.145213 0.000000
        CHANNELS 3 Yrotation Xrotation Zrotation
        JOINT LeftWrist
        {
         OFFSET 0.000000 -27.120720 -0.000000
         CHANNELS 3 Yrotation Xrotation Zrotation
         End Site
         {
          OFFSET 0.000000 -20.306483 0.000000
         }
        }
       }
      }
     }
    }
   }
  }
 }
 JOINT RightHip
 {
  OFFSET -8.869179 -0.005661 -0.000578
  CHANNELS 3 Yrotation Xrotation Zrotation
  JOINT RightKnee
  {
   OFFSET 0.000000 -45.835245 0.000547
   CHANNELS 3 Yrotation Xrotation Zrotation
   JOINT RightAnkle
   {
    OFFSET 0.000000 -44.890236 0.000924
    CHANNELS 3 Yrotation Xrotation Zrotation
    JOINT RightToe
    {
     OFFSET 0.000000 -8.082775 18.351045
     CHANNELS 3 Yrotation Xrotation Zrotation
     End Site
     {
      OFFSET 0.000000 -1.681997 7.345339
     }
    }
   }
  }
 }
 JOINT LeftHip
 {
  OFFSET 8.869179 -0.005661 -0.000578
  CHANNELS 3 Yrotation Xrotation Zrotation
  JOINT LeftKnee
  {
   OFFSET 0.000000 -45.835245 0.000547
   CHANNELS 3 Yrotation Xrotation Zrotation
   JOINT LeftAnkle
   {
    OFFSET 0.000000 -44.890236 0.000924
    CHANNELS 3 Yrotation Xrotation Zrotation
    JOINT LeftToe
    {
     OFFSET 0.000000 -8.082775 18.351045
     CHANNELS 3 Yrotation Xrotation Zrotation
     End Site
     {
      OFFSET 0.000000 -1.681997 7.345339
     }
    }
   }
  }
 }
}
MOTION
Frames: 11
Frame Time: 0.008333
280.515981 100.245201 125.987951 -58.740564 -3.306268 -2.425975 -0.497762 4.451810 -0.811026 -0.201368 1.977599 -0.288087 -0.201368 1.977599 -0.288087 -0.150079 1.483295 -0.215392 -4.087450 13.062452 -0.001012 -7.755457 -11.815374 1.671216 -6.847278 -0.329507 8.257286 2.139229 -5.641628 -12.330126 6.376679 -7.313731 3.485831 29.948218 3.888404 -15.807750 1.667397 -0.843474 -5.700480 -1.831470 -9.464217 16.402463 -11.455600 3.268366 11.518087 -20.077687 -6.304056 -1.359329 -6.870870 -0.590574 1.171319 2.953205 10.421568 1.006797 -1.336820 -5.178199 0.493982 0.024942 -0.227834 -0.368398 11.282600 3.101291 1.740700 -2.529552 10.857196 -1.899471 7.942031 -12.934762 3.861705 -0.029578 0.209590 -0.223429
280.616948 100.231631 126.038683 -58.885948 -3.293150 -2.459179 -0.468821 4.469234 -0.799222 -0.188313 1.985129 -0.276132 -0.188313 1.985129 -0.276132 -0.140323 1.488932 -0.206466 -4.067199 13.070960 0.003686 -7.718507 -11.800385 1.671308 -6.835902 -0.327539 8.255211 2.168892 -5.642037 -12.302022 6.409008 -7.248246 3.430882 30.056069 3.966855 -15.824344 1.674642 -0.863049 -5.699907 -1.862926 -9.482907 16.410057 -11.350282 2.990424 11.305184 -19.801392 -6.368516 -1.178223 -6.978485 -0.884515 1.138066 2.999839 10.873447 1.023187 -1.134988 -5.308656 0.654674 0.025425 -0.248719 -0.384928 11.258358 3.098592 1.699861 -2.484103 10.795552 -1.924323 8.075681 -12.940809 3.984436 -0.028391 0.225081 -0.220398
280.714570 100.217323 126.093497 -59.030762 -3.285192 -2.487161 -0.442489 4.487417 -0.793423 -0.175364 1.992504 -0.266072 -0.175364 1.992504 -0.266072 -0.130642 1.494455 -0.198962 -4.048081 13.084533 0.003315 -7.681361 -11.776274 1.661916 -6.819806 -0.321261 8.249012 2.206063 -5.634670 -12.282901 6.431747 -7.188566 3.377613 30.136292 4.021931 -15.856518 1.677629 -0.873264 -5.695505 -1.897047 -9.511012 16.419579 -11.248363 2.773158 11.165502 -19.541706 -6.497777 -1.051290 -7.086981 -1.173742 1.095856 3.047374 11.330225 1.051490 -0.986305 -5.444521 0.817821 0.024227 -0.268789 -0.403050 11.239344 3.115027 1.658717 -2.418979 10.713759 -1.952312 8.136253 -12.943440 4.116055 -0.027043 0.245372 -0.212169
280.809314 100.201883 126.148098 -59.180128 -3.279592 -2.494261 -0.414922 4.508829 -0.801786 -0.162743 2.001141 -0.257232 -0.162743 2.001141 -0.257232 -0.121202 1.500925 -0.192371 -4.025500 13.097795 0.006587 -7.639163 -11.752680 1.658051 -6.809966 -0.320012 8.251945 2.263203 -5.623273 -12.265616 6.444972 -7.134074 3.332650 30.200077 4.077533 -15.887296 1.681036 -0.884688 -5.693680 -1.941300 -9.549579 16.432663 -11.160248 2.500332 10.945646 -19.312560 -6.534744 -0.891232 -7.202403 -1.463172 1.028907 3.092153 11.787237 1.080035 -0.893803 -5.567882 0.995001 0.026925 -0.300896 -0.421801 11.257035 3.129225 1.600405 -2.377379 10.652050 -1.974838 8.208469 -12.969978 4.230747 -0.024364 0.277592 -0.200504
280.895776 100.186305 126.199895 -59.327937 -3.278934 -2.512683 -0.389439 4.531434 -0.797210 -0.150476 2.009955 -0.249949 -0.150476 2.009955 -0.249949 -0.112023 1.507528 -0.186947 -4.003792 13.114808 0.007530 -7.597474 -11.722231 1.649886 -6.795186 -0.316080 8.248322 2.326368 -5.612139 -12.256538 6.452113 -7.084786 3.290456 30.237483 4.115546 -15.914015 1.680147 -0.896625 -5.692631 -1.996553 -9.589369 16.447432 -11.061417 2.299455 10.808507 -19.099889 -6.650676 -0.788519 -7.310918 -1.748925 0.978502 3.132316 12.261194 1.099396 -0.660283 -5.734155 1.169036 0.028848 -0.305905 -0.444111 11.286499 3.158177 1.569341 -2.351096 10.566137 -2.016156 8.304722 -12.972967 4.349849 -0.024033 0.295880 -0.193842
280.977960 100.170301 126.250210 -59.471791 -3.275333 -2.524008 -0.369308 4.550845 -0.790262 -0.138850 2.020944 -0.243628 -0.138850 2.020944 -0.243628 -0.103321 1.515763 -0.182243 -3.980054 13.130877 0.006790 -7.551312 -11.693745 1.637783 -6.779743 -0.323599 8.246064 2.387226 -5.596218 -12.252852 6.460105 -7.041705 3.265093 30.268990 4.142714 -15.937264 1.684541 -0.916397 -5.700593 -2.064688 -9.624955 16.467573 -10.996402 2.034617 10.582007 -18.910388 -6.667713 -0.641972 -7.409743 -2.041074 0.924984 3.169960 12.743514 1.123015 -0.467246 -5.910155 1.341567 0.031401 -0.308197 -0.463334 11.325692 3.204279 1.529972 -2.344316 10.440025 -2.040679 8.462500 -12.952696 4.441695 -0.016408 0.312836 -0.184699
281.058886 100.153948 126.298168 -59.589762 -3.251153 -2.526930 -0.378499 4.538258 -0.793155 -0.128904 2.030487 -0.240415 -0.128904 2.030487 -0.240415 -0.095868 1.522916 -0.179864 -3.952287 13.153478 0.003219 -7.496025 -11.653529 1.618268 -6.758146 -0.316025 8.249608 2.442633 -5.574382 -12.259495 6.474432 -7.012240 3.240079 30.286082 4.158930 -15.952784 1.690496 -0.916711 -5.702586 -2.136105 -9.673935 16.490572 -10.919877 1.849619 10.437432 -18.748754 -6.769957 -0.550475 -7.505023 -2.351948 0.869417 3.195809 13.225081 1.145619 -0.310335 -6.089567 1.514416 0.031961 -0.309706 -0.478941 11.355704 3.228372 1.481569 -2.371657 10.310228 -2.075795 8.605543 -12.920418 4.547235 -0.014896 0.326443 -0.179018
281.131115 100.137595 126.344572 -59.730177 -3.265225 -2.525088 -0.362009 4.560876 -0.793283 -0.120497 2.042222 -0.238584 -0.120497 2.042222 -0.238584 -0.089566 1.531714 -0.178516 -3.924824 13.173334 0.000455 -7.441805 -11.618323 1.600606 -6.740004 -0.317646 8.256582 2.496224 -5.558057 -12.259297 6.490683 -6.980456 3.226505 30.305408 4.170485 -15.958729 1.697844 -0.923390 -5.705468 -2.216580 -9.722900 16.513630 -10.878682 1.603066 10.214634 -18.601507 -6.770353 -0.423179 -7.545910 -2.626926 0.815018 3.202698 13.709307 1.158607 -0.180363 -6.268974 1.691198 0.033048 -0.314211 -0.492413 11.401956 3.276767 1.436415 -2.407930 10.223260 -2.105298 8.769268 -12.909743 4.636578 -0.007735 0.334010 -0.171909
281.196291 100.121211 126.383351 -59.863255 -3.282990 -2.520401 -0.351137 4.582412 -0.797210 -0.113039 2.053602 -0.238686 -0.113039 2.053602 -0.238686 -0.083968 1.540246 -0.178615 -3.897924 13.194568 -0.005604 -7.387258 -11.580728 1.576861 -6.728571 -0.314375 8.266677 2.543932 -5.538904 -12.271684 6.504259 -6.960283 3.221263 30.334807 4.169712 -15.967993 1.698962 -0.932032 -5.705966 -2.305888 -9.768246 16.537858 -10.830566 1.443000 10.083543 -18.469918 -6.867846 -0.357805 -7.567653 -2.886310 0.770484 3.194483 14.174731 1.157892 -0.077476 -6.444408 1.871181 0.034139 -0.316696 -0.504103 11.446899 3.331556 1.393905 -2.450559 10.129859 -2.142621 8.656559 -12.886496 4.780896 0.000440 0.347751 -0.160892
281.262489 100.104582 126.419386 -59.993964 -3.302288 -2.505229 -0.337029 4.604545 -0.803039 -0.105438 2.065465 -0.238979 -0.105438 2.065465 -0.238979 -0.078262 1.549140 -0.178858 -3.872411 13.215048 -0.010848 -7.335730 -11.544391 1.555291 -6.728434 -0.318989 8.272701 2.580308 -5.521047 -12.274499 6.523081 -6.946826 3.220261 30.359852 4.165136 -15.961319 1.694181 -0.945021 -5.706719 -2.406532 -9.813124 16.551477 -10.811609 1.230659 9.883585 -18.353204 -6.875693 -0.253219 -7.554028 -3.142354 0.722212 3.155414 14.632000 1.141917 0.008560 -6.620296 2.067120 0.035105 -0.315501 -0.519621 11.477705 3.380587 1.348346 -2.475769 10.052412 -2.177750 8.919135 -12.879100 4.842569 0.001195 0.351441 -0.156532
281.328656 100.088754 126.451081 -60.124803 -3.322218 -2.485306 -0.327473 4.623296 -0.818178 -0.099179 2.076146 -0.242165 -0.099179 2.076146 -0.242165 -0.073553 1.557149 -0.181267 -3.847194 13.238175 -0.018095 -7.283833 -11.503241 1.529901 -6.719596 -0.322460 8.285647 2.603296 -5.500781 -12.277675 6.548732 -6.936158 3.234551 30.378266 4.162110 -15.961333 1.702757 -0.952745 -5.701362 -2.524902 -9.858321 16.573091 -10.796041 1.093879 9.763649 -18.241730 -6.955145 -0.199024 -7.504303 -3.392754 0.669629 3.094174 15.075299 1.126944 0.076606 -6.792476 2.274131 0.035116 -0.312474 -0.541433 11.510544 3.425261 1.303601 -2.484015 9.982767 -2.216782 9.186670 -12.874242 4.903078 -0.002411 0.354713 -0.155046
